<svg xmlns="http://www.w3.org/2000/svg" width="256" height="256" viewBox="0 0 100 100"><rect width="100" height="100" rx="20" fill="#ffffff"></rect><path fill="#312e81" d="M31.82 75.56Q30.24 75.56 29.34 74.66Q28.44 73.76 28.44 72.18L28.44 72.18L28.44 33.73Q28.44 29.41 31.03 26.92Q33.62 24.44 38.23 24.44L38.23 24.44L50.40 24.44Q60.91 24.44 66.24 28.83Q71.56 33.22 71.56 41.86L71.56 41.86Q71.56 50.07 66.20 54.43Q60.84 58.78 50.76 58.78L50.76 58.78L35.20 58.78L35.20 72.18Q35.20 73.76 34.30 74.66Q33.40 75.56 31.82 75.56L31.82 75.56ZM50.76 53.31Q57.45 53.31 61.05 50.61Q64.65 47.91 64.65 41.86L64.65 41.86Q64.65 35.60 61.12 32.76Q57.60 29.91 50.76 29.91L50.76 29.91L38.80 29.91Q37.15 29.91 36.18 30.99Q35.20 32.07 35.20 33.87L35.20 33.87L35.20 53.31L50.76 53.31Z"></path></svg>